<svg
  width="128"
  height="128"
  viewBox="0 0 128 128"
  fill="none"
  xmlns="http://www.w3.org/2000/svg"
>
  <!-- Big Gear -->
  <circle cx="52" cy="64" r="22" stroke="#9333EA" stroke-width="6" />
  <circle cx="52" cy="64" r="6" fill="#9333EA" />

  <!-- Big Gear Teeth -->
  <g stroke="#9333EA" stroke-width="5" stroke-linecap="round">
    <line x1="52" y1="34" x2="52" y2="26" />
    <line x1="52" y1="102" x2="52" y2="94" />
    <line x1="22" y1="64" x2="14" y2="64" />
    <line x1="90" y1="64" x2="82" y2="64" />

    <line x1="34" y1="46" x2="28" y2="40" />
    <line x1="70" y1="46" x2="76" y2="40" />
    <line x1="34" y1="82" x2="28" y2="88" />
    <line x1="70" y1="82" x2="76" y2="88" />
  </g>

  <!-- Small Gear -->
  <circle cx="86" cy="42" r="14" stroke="#9333EA" stroke-width="5" />
  <circle cx="86" cy="42" r="4" fill="#9333EA" />

  <!-- Small Gear Teeth -->
  <g stroke="#9333EA" stroke-width="4" stroke-linecap="round">
    <line x1="86" y1="20" x2="86" y2="14" />
    <line x1="86" y1="70" x2="86" y2="64" />
    <line x1="64" y1="42" x2="58" y2="42" />
    <line x1="114" y1="42" x2="108" y2="42" />

    <line x1="74" y1="30" x2="70" y2="26" />
    <line x1="98" y1="30" x2="102" y2="26" />
    <line x1="74" y1="54" x2="70" y2="58" />
    <line x1="98" y1="54" x2="102" y2="58" />
  </g>
</svg>
